<?xml version="1.0"?>
<svg xmlns="http://www.w3.org/2000/svg" xmlns:xlink="http://www.w3.org/1999/xlink" id="SvgjsSvg1000" version="1.1" width="966" height="604">
  <defs id="SvgjsDefs1001"/>
  <g id="SvgjsG1006" class="alignment" opacity="1">
    <polygon id="SvgjsPolygon1007" points="433,252 566,171 571,437 433,352" fill="#ffdc00" opacity="0.2"/>
    <g id="SvgjsG1430" class="label" transform="translate(485.4140625 291.9375)">
      <rect id="SvgjsRect1432" width="33.171875" height="24.125" x="0" y="0" rx="3" ry="3" fill="#000000" opacity="0.4"/>
      <text id="SvgjsText1431" font-family="Helvetica, Arial, sans-serif" font-size="16" fill="#ffffff" stroke-linejoin="miter" x="3" y="17.46875">0m&#xB2;</text>
    </g>
    <g id="SvgjsG1433" class="edge-label label" visibility="visible" transform="rotate(-31.342357494187848 499.5 211.5) translate(484.796875 186.703125)">
      <rect id="SvgjsRect1435" width="29.40625" height="19.59375" x="0" y="0" rx="3" ry="3" fill="#000000" opacity="0.4"/>
      <text id="SvgjsText1434" font-family="Helvetica, Arial, sans-serif" color="#ffffff" fill="#ffffff" font-size="12" stroke-linejoin="miter" x="3" y="13.8125">10m</text>
    </g>
    <g id="SvgjsG1436" class="edge-label label" visibility="visible" transform="rotate(88.9231384793974 568.5 304) translate(553.796875 279.203125)">
      <rect id="SvgjsRect1438" width="29.40625" height="19.59375" x="0" y="0" rx="3" ry="3" fill="#000000" opacity="0.4"/>
      <text id="SvgjsText1437" font-family="Helvetica, Arial, sans-serif" color="#ffffff" fill="#ffffff" font-size="12" stroke-linejoin="miter" x="3" y="13.8125">10m</text>
    </g>
    <g id="SvgjsG1439" class="edge-label label" visibility="visible" transform="rotate(31.63066141213116 502 394.5) translate(487.296875 399.703125)">
      <rect id="SvgjsRect1441" width="29.40625" height="19.59375" x="0" y="0" rx="3" ry="3" fill="#000000" opacity="0.4"/>
      <text id="SvgjsText1440" font-family="Helvetica, Arial, sans-serif" color="#ffffff" fill="#ffffff" font-size="12" stroke-linejoin="miter" x="3" y="13.8125">10m</text>
    </g>
    <g id="SvgjsG1442" class="edge-label label" visibility="visible" transform="rotate(-90 433 302) translate(418.296875 277.203125)">
      <rect id="SvgjsRect1444" width="29.40625" height="19.59375" x="0" y="0" rx="3" ry="3" fill="#000000" opacity="0.4"/>
      <text id="SvgjsText1443" font-family="Helvetica, Arial, sans-serif" color="#ffffff" fill="#ffffff" font-size="12" stroke-linejoin="miter" x="3" y="13.8125">10m</text>
    </g>
    <polyline id="SvgjsPolyline1445" points="433,252 566,171 571,437 433,352 433,252" class="outer-border force-redraw" fill="none" stroke="#000000" stroke-width="3" stroke-linecap="round"/>
    <polyline id="SvgjsPolyline1446" points="433,252 566,171 571,437 433,352 433,252" class="inner-border force-redraw" fill="none" stroke="#ffffff" stroke-width="1" stroke-linecap="round"/>
    <g id="SvgjsG1008" class="grab-handle" fill="none" transform="translate(433 252)">
      <ellipse id="SvgjsEllipse1009" rx="10" ry="10" cx="0" cy="0" stroke="#01ff70" stroke-width="2"/>
      <ellipse id="SvgjsEllipse1010" rx="20" ry="20" cx="0" cy="0"/>
    </g>
    <g id="SvgjsG1011" class="grab-handle" fill="none" transform="translate(566 171)">
      <ellipse id="SvgjsEllipse1012" rx="10" ry="10" cx="0" cy="0" stroke="#01ff70" stroke-width="2"/>
      <ellipse id="SvgjsEllipse1013" rx="20" ry="20" cx="0" cy="0"/>
    </g>
    <g id="SvgjsG1014" class="grab-handle" fill="none" transform="translate(571 437)">
      <ellipse id="SvgjsEllipse1015" rx="20" ry="20" cx="0" cy="0" stroke="#01ff70" stroke-width="2"/>
      <ellipse id="SvgjsEllipse1016" rx="20" ry="20" cx="0" cy="0"/>
    </g>
    <g id="SvgjsG1017" class="grab-handle" fill="none" transform="translate(433 352)">
      <ellipse id="SvgjsEllipse1018" rx="10" ry="10" cx="0" cy="0" stroke="#01ff70" stroke-width="2"/>
      <ellipse id="SvgjsEllipse1019" rx="20" ry="20" cx="0" cy="0"/>
    </g>
  </g>
</svg>
